<svg xmlns="http://www.w3.org/2000/svg" width="128" height="128" viewBox="0 0 64 64" role="img" aria-labelledby="title desc">
  <title id="title">ResumeBuddy colorful icon</title>
  <desc id="desc">Vibrant document with magnifying glass symbolizing resume search and analysis</desc>

  <!-- Background gradient -->
  <defs>
    <linearGradient id="bgGradient" x1="0" y1="0" x2="1" y2="1">
      <stop offset="0%" stop-color="#60a5fa"/>
      <stop offset="100%" stop-color="#9333ea"/>
    </linearGradient>
    <linearGradient id="glassGradient" x1="0" y1="0" x2="1" y2="1">
      <stop offset="0%" stop-color="#fbbf24"/>
      <stop offset="100%" stop-color="#f97316"/>
    </linearGradient>
  </defs>

  <rect x="0" y="0" width="60" height="60" rx="12" ry="12" fill="url(#bgGradient)"/>

  <!-- Document shape -->
  <g transform="translate(8,6)">
    <path d="M0 2.5 A2.5 2.5 0 0 1 2.5 0 H30 A2.5 2.5 0 0 1 32.5 2.5 V36 A2.5 2.5 0 0 1 30 38.5 H2.5 A2.5 2.5 0 0 1 0 36 Z" fill="#ffffff" stroke="#e2e8f0" stroke-width="1.5"/>
    <!-- Folded corner -->
    <path d="M30 0 L30 10 L40 10 Z" fill="#e0e7ff" transform="translate(-8,0)"/>

    <!-- Lines on document -->
    <rect x="4" y="6" width="22" height="2.5" rx="1" fill="#a5b4fc"/>
    <rect x="4" y="11" width="18" height="2.5" rx="1" fill="#93c5fd"/>
    <rect x="4" y="16" width="22" height="2.5" rx="1" fill="#fcd34d"/>
    <rect x="4" y="22" width="14" height="2.5" rx="1" fill="#34d399"/>
  </g>

  <!-- Magnifying glass overlapping the document -->
  <g transform="translate(26,26)">
    <circle cx="12" cy="12" r="8.5" fill="url(#glassGradient)" stroke="#1e293b" stroke-width="1"/>
    <circle cx="12" cy="12" r="6.5" fill="#fff7ed"/>
    <circle cx="12" cy="12" r="5" fill="#fde68a"/>
    <!-- Handle -->
    <rect x="18" y="18" width="12" height="3" rx="1.5" ry="1.5" transform="rotate(40 23 19)" fill="#1e293b"/>
  </g>

</svg>
